<?xml version="1.0" encoding="UTF-8" standalone="no"?>
<!-- Created with Inkscape (http://www.inkscape.org/) -->

<svg
   xmlns:dc="http://purl.org/dc/elements/1.1/"
   xmlns:cc="http://creativecommons.org/ns#"
   xmlns:rdf="http://www.w3.org/1999/02/22-rdf-syntax-ns#"
   xmlns:svg="http://www.w3.org/2000/svg"
   xmlns="http://www.w3.org/2000/svg"
   xmlns:xlink="http://www.w3.org/1999/xlink"
   xmlns:sodipodi="http://sodipodi.sourceforge.net/DTD/sodipodi-0.dtd"
   xmlns:inkscape="http://www.inkscape.org/namespaces/inkscape"
   version="1.0"
   width="251.24185"
   height="242.47726"
   id="svg2"
   inkscape:version="0.91 r13725"
   sodipodi:docname="logo.svg">
  <metadata
     id="metadata21">
    <rdf:RDF>
      <cc:Work
         rdf:about="">
        <dc:format>image/svg+xml</dc:format>
        <dc:type
           rdf:resource="http://purl.org/dc/dcmitype/StillImage" />
        <dc:title></dc:title>
      </cc:Work>
    </rdf:RDF>
  </metadata>
  <sodipodi:namedview
     pagecolor="#ffffff"
     bordercolor="#666666"
     borderopacity="1"
     objecttolerance="10"
     gridtolerance="10"
     guidetolerance="10"
     inkscape:pageopacity="0"
     inkscape:pageshadow="2"
     inkscape:window-width="1280"
     inkscape:window-height="739"
     id="namedview19"
     showgrid="false"
     fit-margin-top="0"
     fit-margin-left="0"
     fit-margin-right="0"
     fit-margin-bottom="0"
     inkscape:zoom="1.2685914"
     inkscape:cx="143.87795"
     inkscape:cy="80.416136"
     inkscape:window-x="0"
     inkscape:window-y="0"
     inkscape:window-maximized="1"
     inkscape:current-layer="svg2" />
  <defs
     id="defs4">
    <linearGradient
       id="linearGradient2182">
      <stop
         style="stop-color:#000000;stop-opacity:1"
         offset="0"
         id="stop2184" />
      <stop
         style="stop-color:#000000;stop-opacity:1"
         offset="0.5"
         id="stop2190" />
      <stop
         style="stop-color:#cbcbcb;stop-opacity:1"
         offset="1"
         id="stop2186" />
    </linearGradient>
    <linearGradient
       x1="-15.031353"
       y1="519.84161"
       x2="2.1115036"
       y2="519.84161"
       id="linearGradient2188"
       xlink:href="#linearGradient2182"
       gradientUnits="userSpaceOnUse"
       gradientTransform="matrix(2.9378705,0,0,2.9845653,3.7718635,-114.13658)" />
    <linearGradient
       id="m"
       y2="39.5"
       gradientUnits="userSpaceOnUse"
       y1="18.99"
       gradientTransform="matrix(1.066,0,0,0.988,-1.56,0.07)"
       x2="35.790001"
       x1="22.309999">
      <stop
         stop-color="#f0f0ef"
         offset="0"
         id="stop38" />
      <stop
         stop-color="#e8e8e8"
         offset=".6"
         id="stop40" />
      <stop
         stop-color="#fff"
         offset=".83"
         id="stop42" />
      <stop
         stop-color="#d8d8d3"
         offset="1"
         id="stop44" />
    </linearGradient>
    <linearGradient
       id="g"
       x1="26.1"
       xlink:href="#i"
       gradientUnits="userSpaceOnUse"
       x2="30.809999"
       y1="26.700001"
       y2="42" />
    <linearGradient
       id="i"
       y2="-0.2"
       gradientUnits="userSpaceOnUse"
       y1="12.17"
       x2="25.690001"
       x1="25.68">
      <stop
         stop-color="#fff"
         offset="0"
         id="stop7" />
      <stop
         stop-opacity="0"
         stop-color="#fff"
         offset="1"
         id="stop9" />
    </linearGradient>
    <linearGradient
       id="k"
       y2="42.099998"
       gradientUnits="userSpaceOnUse"
       y1="39.200001"
       x2="39.099998"
       x1="36.810001">
      <stop
         offset="0"
         id="stop33" />
      <stop
         stop-opacity="0"
         offset="1"
         id="stop35" />
    </linearGradient>
    <linearGradient
       id="j"
       y2="37.77"
       gradientUnits="userSpaceOnUse"
       y1="40.459999"
       x2="33.66"
       x1="36">
      <stop
         stop-color="#7c7c7c"
         offset="0"
         id="stop16" />
      <stop
         stop-color="#b8b8b8"
         offset="1"
         id="stop18" />
    </linearGradient>
    <linearGradient
       id="h"
       x1="33.400002"
       xlink:href="#i"
       gradientUnits="userSpaceOnUse"
       x2="34.200001"
       y1="36.919998"
       y2="38.099998" />
  </defs>
  <g
     id="g4178"
     transform="matrix(0.18096738,0,0,0.18096738,-18.096738,215.33216)">
    <g
       id="g4271"
       transform="matrix(20.067226,0,0,20.067226,-61.139819,-713.09142)">
      <rect
         rx="0.56999999"
         height="35.98"
         width="30.950001"
         y="6.5300002"
         x="8.5299997"
         id="rect56"
         style="fill:url(#m);stroke:#888a85" />
      <rect
         id="a"
         rx="1"
         height="3.7"
         width="3.7"
         y="14.4"
         x="11.7"
         style="opacity:0.4;fill:none;stroke:#2e3436;stroke-width:0.80000001" />
      <use
         y="6.48"
         xlink:href="#a"
         id="use61"
         x="0"
         width="100%"
         height="100%" />
      <use
         y="12.96"
         xlink:href="#a"
         id="use65"
         x="0"
         width="100%"
         height="100%" />
      <path
         inkscape:connector-curvature="0"
         style="fill:none;stroke:url(#g)"
         id="path69"
         d="m 9.52,7.47 29,0 0,34 -29,0 z" />
      <path
         d="m 39,36.3 0.04,5.81 -8.5,-0.04 L 39,36.3"
         id="path81"
         inkscape:connector-curvature="0"
         style="opacity:0.5;fill:url(#k)" />
      <path
         d="m 30.1,42.1 c 1.79,0.16 8.99,-4.37 9.48,-8.39 -1.56,2.42 -4.96,1.97 -9.1,2.13 0,0 0.39,5.76 -0.42,6.26 z"
         id="path83"
         inkscape:connector-curvature="0"
         style="fill:url(#j);stroke:#868a84" />
      <path
         inkscape:connector-curvature="0"
         style="opacity:0.37000002;fill:none;stroke:url(#h)"
         id="path89"
         d="m 31.51,40.69 c 1.37,-0.69 4.53,-2.6 5.83,-4.48 -1.79,0.37 -2.99,0.58 -5.73,0.69 0,0 0.09,3 -0.1,3.79 z" />
      <g
         id="g91"
         style="opacity:0.17000002">
        <path
           d="m 19.76,15 16.34,0 0,2 -16.34,0 z"
           id="path93"
           inkscape:connector-curvature="0" />
        <path
           d="m 19.76,19 15.56,0 0,2 -15.56,0 z"
           id="path95"
           inkscape:connector-curvature="0" />
        <path
           d="m 19.76,23 14,0 0,2 -14,0 z"
           id="path97"
           inkscape:connector-curvature="0" />
        <path
           d="m 19.76,27 16.34,0 0,2 -16.34,0 z"
           id="path99"
           inkscape:connector-curvature="0" />
        <path
           d="m 19.76,31 10.12,0 0,2 -10.12,0 z"
           id="path101"
           inkscape:connector-curvature="0" />
      </g>
      <use
         y="12.96"
         xlink:href="#a"
         id="use65-9"
         x="0"
         width="100%"
         height="100%"
         transform="translate(0.0262714,6.0272885)" />
    </g>
    <rect
       width="50.363441"
       height="886.84076"
       x="-40.388367"
       y="993.94189"
       transform="matrix(0.60012835,0.79990372,0.78815085,-0.61548212,0,0)"
       style="fill:url(#linearGradient2188);fill-opacity:1;stroke:none;stroke-width:1;stroke-miterlimit:4;stroke-dasharray:none;stroke-opacity:1"
       id="rect1307" />
    <path
       d="m 1040.3064,-582.65486 -28.6318,-40.91526 28.4134,-42.24251 -47.75819,15.7805 -30.27478,-39.6637 -0.88447,50.66816 -47.12428,17.72897 47.2116,15.53414 1.15038,50.62081 30.06285,-41.06753 47.83529,13.55642 z"
       style="fill:#000000;fill-opacity:1;stroke:none;stroke-width:1;stroke-miterlimit:4;stroke-dasharray:none;stroke-opacity:1"
       id="path2192"
       inkscape:connector-curvature="0" />
    <path
       d="m 795.62131,-868.73133 -36.38343,-0.48584 -11.50287,-34.80109 -12.40001,34.97626 -36.40278,1.01926 28.71981,22.10236 -10.99529,35.43103 30.14982,-21.31624 29.60732,20.87831 -10.0862,-35.27654 29.29363,-22.52751 z"
       style="fill:#000000;fill-opacity:1;stroke:none;stroke-width:1;stroke-miterlimit:4;stroke-dasharray:none;stroke-opacity:1"
       id="path3067"
       inkscape:connector-curvature="0" />
    <path
       d="m 762.53602,-479.65583 -24.27461,-43.77065 32.48406,-39.14266 -49.00477,10.74764 -26.03232,-42.69451 -6.01202,50.41306 -48.57293,12.75599 45.28914,20.40934 -3.98739,50.57815 34.00226,-37.7994 46.10858,18.50304 z"
       style="fill:#000000;fill-opacity:1;stroke:none;stroke-width:1;stroke-miterlimit:4;stroke-dasharray:none;stroke-opacity:1"
       id="path3069"
       inkscape:connector-curvature="0" />
    <path
       d="m 754.20435,-737.866 -26.29179,-3.11998 -5.75298,-26.16317 -11.55648,24.47265 -26.41697,-2.02776 19.14949,18.24492 -10.57361,24.90994 23.39152,-13.19667 19.88211,17.42295 -4.69273,-26.40092 22.86144,-14.14196 z"
       style="fill:#000000;fill-opacity:1;stroke:none;stroke-width:1;stroke-miterlimit:4;stroke-dasharray:none;stroke-opacity:1"
       id="path3071"
       inkscape:connector-curvature="0" />
    <path
       d="m 632.584,-529.52171 -10.81654,-35.03937 28.83449,-23.13563 -36.40085,0.2878 -12.22367,-34.53413 -11.68043,35.21725 -36.38914,1.79235 29.18195,21.47766 -10.26605,35.64186 29.71588,-21.94333 30.04436,20.23554 z"
       style="fill:#000000;fill-opacity:1;stroke:none;stroke-width:1;stroke-miterlimit:4;stroke-dasharray:none;stroke-opacity:1"
       id="path3073"
       inkscape:connector-curvature="0" />
    <path
       d="m 641.55026,-717.56485 -26.53068,-24.74146 14.1538,-34.31509 -31.90532,18.43865 -27.52418,-23.60356 6.81211,36.13719 -31.16468,19.72728 36.11543,3.89535 8.26335,35.79569 15.50846,-33.72974 36.27171,2.39569 z"
       style="fill:#000000;fill-opacity:1;stroke:none;stroke-width:1;stroke-miterlimit:4;stroke-dasharray:none;stroke-opacity:1"
       id="path3075"
       inkscape:connector-curvature="0" />
    <path
       d="m 923.15087,-448.87253 -25.16467,-15.07415 5.66682,-29.47198 -22.39365,19.9212 -25.76993,-14.00873 11.32463,27.38613 -21.59352,20.8141 29.39266,-2.99564 12.4244,26.87256 6.84104,-29.23755 29.27222,-4.20594 z"
       style="fill:#000000;fill-opacity:1;stroke:none;stroke-width:1;stroke-miterlimit:4;stroke-dasharray:none;stroke-opacity:1"
       id="path3077"
       inkscape:connector-curvature="0" />
    <path
       d="m 741.49196,-638.78612 34.83144,47.04257 102.08723,-80.72241 -34.83143,-47.04259 -102.08724,80.72243 z"
       style="opacity:0.9;fill:#ffffff;fill-opacity:1;stroke:none;stroke-width:1;stroke-miterlimit:4;stroke-opacity:1"
       id="rect3083"
       inkscape:connector-curvature="0" />
  </g>
</svg>
